<svg xmlns="http://www.w3.org/2000/svg" xmlns:xlink="http://www.w3.org/1999/xlink" viewBox="0 0 171.5 67.8"><defs><mask id="a" x="0" y="0" width="51.02" height="67.8" maskUnits="userSpaceOnUse"><g transform="translate(-426.25 -478.1)"><path d="M426.25,478.1h51v67.8h-51Z" style="fill:#fff"/></g></mask></defs><title>PayMe logo</title><path d="M451.59,490.71a13.48,13.48,0,0,0-13.5,13.42c0,3.64,0,12.64,0,12.73a.77.77,0,0,0,.76.77h0c.09,0,9.37,0,12.66,0a13.44,13.44,0,1,0,0-26.89m0,25.35c-2.74,0-9.6,0-11.9,0,0-2.27,0-8.94,0-11.95a12,12,0,1,1,11.94,11.92" transform="translate(-426.25 -478.1)" style="fill:#db0011"/><path d="M451.59,484.65a19.49,19.49,0,0,0-19.42,19.5c0,4.17,0,13.08,0,17,0,0,0,0,0,.06l0,17.89a.77.77,0,1,0,1.53,0l0-15.31c2.91,0,13.64-.05,17.8,0a19.53,19.53,0,0,0,.05-39.06m-.05,37.5c-4.16,0-14.84,0-17.79,0,0-2.94-.06-13.41-.05-18a17.87,17.87,0,1,1,17.84,18" transform="translate(-426.25 -478.1)" style="fill:#db0011"/><g style="mask:url(#a)"><path d="M451.79,478.1a25.55,25.55,0,0,0-25.54,25.49c0,7.11.07,24.67.08,24.84V539c0,1.79,1.18,6.9,6.49,6.91a6.71,6.71,0,0,0,7-6.62c0-1.25.09-7.9.12-10.11l11.84,0a25.53,25.53,0,0,0,.07-51.05m-.07,49.49-12.43,0a.73.73,0,0,0-.21,0l-.18.05a.78.78,0,0,0-.55.74c0,.38-.13,9.34-.13,10.85,0,.05-.24,5.07-5.42,5.06-4.74,0-4.95-5.29-4.95-5.34V528.43c0-.18-.08-17.73-.08-24.84a24,24,0,1,1,23.93,24" transform="translate(-426.25 -478.1)" style="fill:#db0011"/></g><path d="M495.84,499.83h-4.61v9.94h3.62c3.69,0,7.28-.58,7.28-5.16,0-4-2.88-4.77-6.28-4.77m5,11.94a14.08,14.08,0,0,1-4.79.69h-4.86l0,11.41h-3.44l0-26.7H496c2.27,0,4.61,0,6.58,1.34a7.39,7.39,0,0,1,3.17,6.36,7.07,7.07,0,0,1-4.83,6.9m16.78,2.72c-2.85,0-7.53.32-7.54,4.13,0,2.29,1.93,3.51,4.05,3.52,4.64,0,5.12-3.8,5.13-7.57A14.45,14.45,0,0,0,517.65,514.48Zm2.29,9.42a21.27,21.27,0,0,1-.33-2.62c-1.54,2.25-3.59,3-6.26,3-3.44,0-6.47-1.75-6.46-5.55,0-5.58,6.08-6.23,10.58-6.23q.92,0,1.83.08v-1.11c0-2.88-1-4.51-4.05-4.51-2.27,0-3.62.84-3.84,3.28h-3.14c.19-4.06,3.44-5.39,6.92-5.38,4.72,0,7,1.82,7,6.69v6.87a22.75,22.75,0,0,0,.58,5.47h-2.81Zm13.3,7H530l3-7-7.84-18.63h3.66l5.79,15.26,5.8-15.25h3.25Zm39.35-7,0-24-9.36,24h-3.14l-9.33-24.09,0,24.08h-3.11l0-26.7h5.48l8.67,22.58,8.51-22.55h5.48l0,26.7Zm17.13-16.74c-3.4,0-5.09,2.8-5.38,5.9h10.24c0-3.07-1.49-5.91-4.86-5.92Zm-5.46,8v.37c0,3.44,1.82,6.58,5.55,6.58a4.58,4.58,0,0,0,4.76-4.24h3.07c-.74,4.39-3.88,6.42-8.09,6.42-5.74,0-8.52-3.89-8.51-9.43s2.79-10,8.79-10c6.18,0,7.93,4.85,7.92,10.28l-13.49,0ZM451.77,496.77a7.32,7.32,0,0,0-7.24,7.38c0,2,0,6.83,0,6.83a.58.58,0,0,0,.57.59h0l6.63,0a7.4,7.4,0,0,0,0-14.79m0,13.22h-5.69c0-1.27,0-4.39,0-5.85a5.72,5.72,0,1,1,5.71,5.84" transform="translate(-426.25 -478.1)" style="fill:#db0011"/></svg>