<?xml version="1.0" standalone="no"?><!DOCTYPE svg PUBLIC "-//W3C//DTD SVG 1.1//EN" "http://www.w3.org/Graphics/SVG/1.1/DTD/svg11.dtd"><svg t="1724811220312" class="icon" viewBox="0 0 1024 1024" version="1.1" xmlns="http://www.w3.org/2000/svg" p-id="6586" xmlns:xlink="http://www.w3.org/1999/xlink" width="200" height="200"><path d="M320.044 981.236H234.72c-11.78 0-21.308 9.558-21.308 21.338s9.53 21.308 21.308 21.308h85.324c11.778 0 21.338-9.53 21.338-21.308s-9.56-21.338-21.338-21.338zM789.282 981.236h-85.324c-11.778 0-21.34 9.558-21.34 21.338s9.562 21.308 21.34 21.308h85.324c11.778 0 21.308-9.53 21.308-21.308s-9.532-21.338-21.308-21.338z" fill="#E9573F" p-id="6587"></path><path d="M853.266 981.236c0 11.778-9.558 21.338-21.338 21.338H192.074c-11.78 0-21.34-9.56-21.34-21.338V21.456c0-11.78 9.56-21.338 21.34-21.338h639.854c11.78 0 21.338 9.558 21.338 21.338v959.78z" fill="#FC6E51" p-id="6588"></path><path d="M256.058 85.442h426.558v383.912H256.058zM767.942 192.072c0 11.794-9.558 21.34-21.338 21.34s-21.306-9.544-21.306-21.34c0-11.78 9.528-21.322 21.306-21.322s21.338 9.542 21.338 21.322zM767.942 277.396c0 11.78-9.558 21.324-21.338 21.324s-21.306-9.544-21.306-21.324 9.528-21.338 21.306-21.338 21.338 9.56 21.338 21.338zM767.942 362.706c0 11.78-9.558 21.324-21.338 21.324s-21.306-9.544-21.306-21.324 9.528-21.322 21.306-21.322 21.338 9.542 21.338 21.322z" fill="#F5F7FA" p-id="6589"></path><path d="M575.986 170.75H362.692c-11.78 0-21.308 9.558-21.308 21.338s9.53 21.324 21.308 21.324h213.294c11.78 0 21.338-9.544 21.338-21.324s-9.558-21.338-21.338-21.338zM512 256.058l-0.032 0.016h-149.278c-11.78 0-21.308 9.542-21.308 21.322s9.53 21.324 21.308 21.324H512c11.78 0 21.34-9.544 21.34-21.324s-9.56-21.338-21.34-21.338zM448.016 341.382h-85.324c-11.78 0-21.308 9.542-21.308 21.322s9.53 21.324 21.308 21.324h85.324c11.778 0 21.338-9.544 21.338-21.324s-9.562-21.322-21.338-21.322z" fill="#434A54" p-id="6590"></path><path d="M277.398 639.97c-11.78 0-21.34 9.558-21.34 21.338s9.56 21.338 21.34 21.338c11.778 0 21.306-9.558 21.306-21.338s-9.528-21.338-21.306-21.338zM362.692 639.97c-11.78 0-21.308 9.558-21.308 21.338s9.53 21.338 21.308 21.338 21.338-9.558 21.338-21.338-9.562-21.338-21.338-21.338zM448.016 682.646c11.778 0 21.338-9.558 21.338-21.338s-9.56-21.338-21.338-21.338c-11.78 0-21.34 9.558-21.34 21.338s9.56 21.338 21.34 21.338zM277.398 725.292c-11.78 0-21.34 9.56-21.34 21.34s9.56 21.308 21.34 21.308c11.778 0 21.306-9.53 21.306-21.308s-9.528-21.34-21.306-21.34zM362.692 725.292c-11.78 0-21.308 9.56-21.308 21.34s9.53 21.308 21.308 21.308 21.338-9.53 21.338-21.308-9.562-21.34-21.338-21.34zM448.016 725.292c-11.78 0-21.34 9.56-21.34 21.34s9.56 21.308 21.34 21.308c11.778 0 21.338-9.53 21.338-21.308s-9.562-21.34-21.338-21.34zM277.398 810.62c-11.78 0-21.34 9.528-21.34 21.306s9.56 21.34 21.34 21.34c11.778 0 21.306-9.56 21.306-21.34s-9.528-21.306-21.306-21.306zM362.692 810.62c-11.78 0-21.308 9.528-21.308 21.306s9.53 21.34 21.308 21.34 21.338-9.56 21.338-21.34-9.562-21.306-21.338-21.306zM448.016 810.62c-11.78 0-21.34 9.528-21.34 21.306s9.56 21.34 21.34 21.34c11.778 0 21.338-9.56 21.338-21.34s-9.562-21.306-21.338-21.306z" fill="#F5F7FA" p-id="6591"></path><path d="M448.016 554.678h-170.618c-11.78 0-21.34 9.528-21.34 21.306s9.56 21.338 21.34 21.338h170.618c11.778 0 21.338-9.558 21.338-21.338s-9.562-21.306-21.338-21.306z" fill="#E9573F" p-id="6592"></path><path d="M746.604 554.678h-170.618c-11.78 0-21.338 9.528-21.338 21.306s9.558 21.338 21.338 21.338h170.618c11.78 0 21.338-9.558 21.338-21.338s-9.56-21.306-21.338-21.306z" fill="#434A54" p-id="6593"></path><path d="M575.518 575.984h171.554v170.648h-171.554z" fill="#A0D468" p-id="6594"></path><path d="M661.31 618.662c23.556 0 42.646-19.122 42.646-42.678h-85.324c0 23.558 19.122 42.678 42.678 42.678z" fill="#8CC153" p-id="6595"></path></svg>