<?xml version="1.0" standalone="no"?><!DOCTYPE svg PUBLIC "-//W3C//DTD SVG 1.1//EN" "http://www.w3.org/Graphics/SVG/1.1/DTD/svg11.dtd"><svg t="1724810596477" class="icon" viewBox="0 0 1024 1024" version="1.1" xmlns="http://www.w3.org/2000/svg" p-id="4227" xmlns:xlink="http://www.w3.org/1999/xlink" width="200" height="200"><path d="M696.504 352a14 14 0 0 1-14-14v-49.6a14 14 0 0 1 28 0v49.6a14 14 0 0 1-14 14z" fill="#475A61" p-id="4228"></path><path d="M108.184 474.832h807.624V556H108.184z" fill="#FD9025" p-id="4229"></path><path d="M143 556h738v359.816h-738z" fill="#FC642B" p-id="4230"></path><path d="M512 338h369v136.832H512z" fill="#5A6C75" p-id="4231"></path><path d="M616.504 203.872h160v84.568h-160z" fill="#83E685" p-id="4232"></path><path d="M274.816 190.184m-82 0a82 82 0 1 0 164 0 82 82 0 1 0-164 0Z" fill="#FECEC0" p-id="4233"></path><path d="M274.4 272.184h0.864a131.384 131.384 0 0 1 131.36 131.384v71.264H143v-71.264A131.384 131.384 0 0 1 274.4 272.184z" fill="#20C8C7" p-id="4234"></path></svg>