<?xml version="1.0" standalone="no"?><!DOCTYPE svg PUBLIC "-//W3C//DTD SVG 1.1//EN" "http://www.w3.org/Graphics/SVG/1.1/DTD/svg11.dtd"><svg t="1724810385701" class="icon" viewBox="0 0 1024 1024" version="1.1" xmlns="http://www.w3.org/2000/svg" p-id="1859" xmlns:xlink="http://www.w3.org/1999/xlink" width="200" height="200"><path d="M82.580645 57.806452A24.774194 24.774194 0 0 0 57.806452 82.580645v858.83871A24.774194 24.774194 0 0 0 82.580645 966.193548h858.83871a24.774194 24.774194 0 0 0 24.774193-24.774193V82.580645A24.774194 24.774194 0 0 0 941.419355 57.806452H82.580645z m0-49.548387h858.83871A74.322581 74.322581 0 0 1 1015.741935 82.580645v858.83871a74.322581 74.322581 0 0 1-74.32258 74.32258H82.580645A74.322581 74.322581 0 0 1 8.258065 941.419355V82.580645A74.322581 74.322581 0 0 1 82.580645 8.258065z" fill="#0069F6" p-id="1860"></path><path d="M660.645161 512m-49.548387 0a49.548387 49.548387 0 1 0 99.096774 0 49.548387 49.548387 0 1 0-99.096774 0Z" fill="#5ED7BC" p-id="1861"></path><path d="M965.912774 602.83871v49.548387H627.612903a140.387097 140.387097 0 1 1 0-280.774194h338.035613v49.548387H627.612903a90.83871 90.83871 0 0 0 0 181.67742h338.299871z" fill="#5ED7BC" p-id="1862"></path></svg>