<?xml version="1.0" standalone="no"?><!DOCTYPE svg PUBLIC "-//W3C//DTD SVG 1.1//EN" "http://www.w3.org/Graphics/SVG/1.1/DTD/svg11.dtd"><svg t="1724810570488" class="icon" viewBox="0 0 1024 1024" version="1.1" xmlns="http://www.w3.org/2000/svg" p-id="4083" xmlns:xlink="http://www.w3.org/1999/xlink" width="200" height="200"><path d="M136.533333 0h750.933334a136.533333 136.533333 0 0 1 136.533333 136.533333v750.933334a136.533333 136.533333 0 0 1-136.533333 136.533333H136.533333a136.533333 136.533333 0 0 1-136.533333-136.533333V136.533333a136.533333 136.533333 0 0 1 136.533333-136.533333z" fill="#6A92FF" p-id="4084"></path><path d="M793.6 384h-51.2v-85.333333a17.066667 17.066667 0 0 0-17.066667-17.066667h-85.333333v-51.2h85.333333a68.266667 68.266667 0 0 1 68.266667 68.266667v85.333333z m-51.2 256h51.2v85.333333a68.266667 68.266667 0 0 1-68.266667 68.266667h-85.333333v-51.2h85.333333a17.066667 17.066667 0 0 0 17.066667-17.066667v-85.333333z m-358.4-409.6v51.2h-85.333333a17.066667 17.066667 0 0 0-17.066667 17.066667v85.333333h-51.2v-85.333333a68.266667 68.266667 0 0 1 68.266667-68.266667h85.333333z m0 512v51.2h-85.333333a68.266667 68.266667 0 0 1-68.266667-68.266667v-85.333333h51.2v85.333333a17.066667 17.066667 0 0 0 17.066667 17.066667h85.333333z m8.533333-384h238.933334a34.133333 34.133333 0 0 1 34.133333 34.133333v68.266667h-307.2v-68.266667a34.133333 34.133333 0 0 1 34.133333-34.133333z m0 307.2a34.133333 34.133333 0 0 1-34.133333-34.133333v-68.266667h307.2v68.266667a34.133333 34.133333 0 0 1-34.133333 34.133333h-238.933334z m-136.533333-179.2h512a25.6 25.6 0 1 1 0 51.2h-512a25.6 25.6 0 1 1 0-51.2z" fill="#FFFFFF" p-id="4085"></path></svg>