<?xml version="1.0" standalone="no"?><!DOCTYPE svg PUBLIC "-//W3C//DTD SVG 1.1//EN" "http://www.w3.org/Graphics/SVG/1.1/DTD/svg11.dtd"><svg t="1737779369274" class="icon" viewBox="0 0 1024 1024" version="1.1" xmlns="http://www.w3.org/2000/svg" p-id="3377" width="144" height="144" xmlns:xlink="http://www.w3.org/1999/xlink"><path d="M0 0h1024v1024H0z" fill="#D8D8D8" fill-opacity="0" p-id="3378"></path><path d="M174.72 170.666667h643.242667c59.605333 0 89.386667 29.952 89.386666 89.856v423.381333c0 59.904-29.781333 89.856-89.386666 89.856H174.72C115.114667 773.76 85.333333 743.808 85.333333 683.904V260.522667C85.333333 200.618667 115.114667 170.666667 174.72 170.666667z" fill="#61AFFE" p-id="3379"></path><path d="M85.333333 271.189333h822.016V371.626667H85.333333z" fill="#4A4A4A" p-id="3380"></path><path d="M238.122667 472.192h252.288c33.322667 0 50.005333 16.768 50.005333 50.261333 0 33.493333-16.64 50.261333-50.005333 50.261334H238.08c-33.322667 0-50.005333-16.768-50.005333-50.304v0.042666c0-33.493333 16.64-50.261333 50.005333-50.261333z" fill="#FFFFFF" p-id="3381"></path><path d="M563.712 668.544a226.986667 226.986667 0 0 0 115.072 196.992 232.533333 232.533333 0 0 0 230.144 0A226.986667 226.986667 0 0 0 1024 668.544a226.986667 226.986667 0 0 0-115.072-196.992 232.533333 232.533333 0 0 0-230.144 0 226.986667 226.986667 0 0 0-115.072 196.992z" fill="#5BD599" p-id="3382"></path><path d="M835.84 611.285333l-30.805333-31.402666a18.688 18.688 0 0 1-5.546667-14.378667 19.242667 19.242667 0 0 1 7.424-13.653333 23.552 23.552 0 0 1 31.104 1.621333l63.317333 64.469333a18.346667 18.346667 0 0 1 3.584 21.376 22.272 22.272 0 0 1-20.053333 11.690667H689.066667c-12.16 0-22.016-8.874667-22.016-19.84s9.898667-19.882667 22.016-19.882667h146.773333z m-97.706667 105.6l30.805334 31.36c5.717333 5.546667 7.210667 14.208 3.669333 21.333334a22.272 22.272 0 0 1-20.138667 11.733333 22.954667 22.954667 0 0 1-16.512-6.656l-63.317333-64.469333a18.346667 18.346667 0 0 1-3.584-21.333334 22.272 22.272 0 0 1 20.053333-11.733333h195.754667c12.16 0 22.016 8.874667 22.016 19.84s-9.856 19.925333-21.973333 19.925333H738.133333z" fill="#FFFFFF" p-id="3383"></path></svg>