<?xml version="1.0" standalone="no"?><!DOCTYPE svg PUBLIC "-//W3C//DTD SVG 1.1//EN" "http://www.w3.org/Graphics/SVG/1.1/DTD/svg11.dtd"><svg t="1730429676991" class="icon" viewBox="0 0 1024 1024" version="1.1" xmlns="http://www.w3.org/2000/svg" p-id="1494" xmlns:xlink="http://www.w3.org/1999/xlink" width="200" height="200"><path d="M512 0A512 512 0 1 1 0 512 512 512 0 0 1 512 0z m315.050667 455.082667H214.144v237.738666a75.221333 75.221333 0 0 0 15.957333 47.232l4.821334 5.546667a71.936 71.936 0 0 0 51.2 22.4H755.2a72.149333 72.149333 0 0 0 51.2-22.357333 75.093333 75.093333 0 0 0 20.736-52.821334v-237.738666zM550.4 623.744l-36.266667 72.106667h-35.370666l37.12-72.106667h34.517333z m76.8 0l-34.56 72.106667h-35.370667l35.413334-72.106667h34.517333z m143.189333 0l-35.84 72.106667H634.026667l34.133333-72.106667h102.4zM755.2 298.666667h-469.333333a73.642667 73.642667 0 0 0-71.68 75.178666v42.154667h612.864v-42.154667a75.050667 75.050667 0 0 0-15.914667-47.232l-4.821333-5.546666A72.192 72.192 0 0 0 755.2 298.666667z" fill="#FC5330" p-id="1495"></path></svg>