<?xml version="1.0" standalone="no"?><!DOCTYPE svg PUBLIC "-//W3C//DTD SVG 1.1//EN" "http://www.w3.org/Graphics/SVG/1.1/DTD/svg11.dtd"><svg t="1739502956734" class="icon" viewBox="0 0 1024 1024" version="1.1" xmlns="http://www.w3.org/2000/svg" p-id="2194" xmlns:xlink="http://www.w3.org/1999/xlink" width="200" height="200"><path d="M921.6 358.4a51.2 51.2 0 1 1 0 102.4v358.4a51.2 51.2 0 1 1 0 102.4H102.4a51.2 51.2 0 1 1 0-102.4V460.8a51.2 51.2 0 1 1 0-102.4z m-409.6 153.6a51.2 51.2 0 0 0-51.2 51.2v153.6a51.2 51.2 0 1 0 102.4 0v-153.6a51.2 51.2 0 0 0-51.2-51.2z m204.8 0a51.2 51.2 0 0 0-51.2 51.2v153.6a51.2 51.2 0 1 0 102.4 0v-153.6a51.2 51.2 0 0 0-51.2-51.2z m-409.6 0a51.2 51.2 0 0 0-51.2 51.2v153.6a51.2 51.2 0 1 0 102.4 0v-153.6a51.2 51.2 0 0 0-51.2-51.2z" fill="#0073FA" p-id="2195"></path><path d="M173.7728 307.2S117.6576 302.08 106.5472 276.0704a51.2 51.2 0 0 1 26.88-67.2256l358.4-153.6c12.9024-5.4784 27.4432-5.4784 40.3456 0l358.4 153.6a51.2 51.2 0 0 1 26.88 67.2256c-8.2944 19.456-47.104 31.0272-47.104 31.0272H173.7728z" fill="#00D9FF" p-id="2196"></path></svg>