<svg   viewBox="0 0 90 27" fill="none" xmlns="http://www.w3.org/2000/svg">
<g clip-path="url(#clip0_366_32921)">
<path fill-rule="evenodd" clip-rule="evenodd" d="M37.08 8.83979C37.08 10.0098 38.51 10.3498 40.18 10.7398C42.55 11.2998 45.24 11.9398 45.24 15.0198C45.24 17.7198 42.93 19.4698 39.35 19.4698C37.19 19.4698 34.99 18.8298 33.72 17.8298L34.77 15.4198C36.02 16.3398 37.77 16.8998 39.37 16.8998C41.79 16.8998 42.15 15.8798 42.15 15.2698C42.15 14.0798 40.71 13.7398 39.05 13.3298C36.68 12.7598 33.99 12.1098 33.99 8.99978C33.99 6.83978 35.53 4.52979 39.84 4.52979C41.65 4.52979 43.51 5.14978 44.75 5.94978C44.75 5.94978 42.87 7.34979 42.46 7.64979C41.61 7.25979 40.96 7.09978 39.82 7.09978C39 7.09978 37.09 7.26978 37.09 8.82978M58.2 11.7198L58.35 11.7698C59.95 12.2998 60.87 13.5898 60.87 15.3098C60.87 17.8298 58.9 19.2198 55.32 19.2198H48.13V4.77979H54.92C58.21 4.77979 60.17 6.16979 60.17 8.49978C60.17 9.87978 59.52 10.9998 58.34 11.6498L58.2 11.7198ZM54.52 7.17978H51.22V10.7098H54.52C56.16 10.7098 57.03 10.1098 57.03 8.93978C57.03 8.13978 56.59 7.16979 54.52 7.16979M51.23 16.7998H55.09C56.87 16.7998 57.74 16.1898 57.74 14.9498C57.74 13.7098 56.85 13.0998 55.09 13.0998H51.23V16.7998ZM71.35 7.16979L74.59 4.76978H63.75V19.2098H74.59V16.7998H66.85V13.0998H73.46V10.6898H66.85V7.15978H71.36L71.35 7.16979ZM86.54 14.5198L89.69 19.2098H86.37L83.62 15.1098H83.36H80.55V19.1998H77.46V4.77979H83.36C87.13 4.77979 89.47 6.75978 89.47 9.94978C89.47 12.1098 88.4 13.7198 86.54 14.5298M83.3 7.17978H80.56V12.7198H83.3C85.28 12.7198 86.37 11.7398 86.37 9.94978C86.37 8.15978 85.28 7.17978 83.3 7.17978Z" fill="#21A038"/>
<path d="M24.3299 4.65967C24.8899 5.38967 25.3699 6.18967 25.7599 7.04967L14.9099 15.1097L10.3799 12.2497V8.79967L14.9099 11.6597L24.3399 4.65967H24.3299Z" fill="#21A038"/>
<mask id="mask0_366_32921" style="mask-type:luminance" maskUnits="userSpaceOnUse" x="3" y="11" width="6" height="10">
<path d="M3 11.9999C3 15.3099 4.33 18.3099 6.49 20.4799L8.44 18.5199C6.78 16.8499 5.75 14.5399 5.75 11.9999C5.75 11.8499 5.75 11.6899 5.76 11.5399L3.01 11.3999C3.01 11.5999 3 11.7999 3 11.9999Z" fill="white"/>
</mask>
<g mask="url(#mask0_366_32921)">
<path d="M7.83633 9.71645L0.168457 12.3882L3.58051 22.1808L11.2484 19.509L7.83633 9.71645Z" fill="url(#paint0_linear_366_32921)"/>
</g>
<mask id="mask1_366_32921" style="mask-type:luminance" maskUnits="userSpaceOnUse" x="6" y="0" width="10" height="6">
<path d="M6.47998 3.52L8.42998 5.48C10.09 3.81 12.38 2.77 14.9 2.77C15.05 2.77 15.21 2.77 15.36 2.78L15.5 0.02C15.3 0.01 15.1 0 14.9 0C11.61 0 8.62998 1.34 6.47998 3.52Z" fill="white"/>
</mask>
<g mask="url(#mask1_366_32921)">
<path d="M14.3712 -2.9824L4.67188 0.686523L7.61196 8.45904L17.3112 4.79012L14.3712 -2.9824Z" fill="url(#paint1_linear_366_32921)"/>
</g>
<mask id="mask2_366_32921" style="mask-type:luminance" maskUnits="userSpaceOnUse" x="14" y="18" width="10" height="6">
<path d="M14.9101 21.2298C14.7601 21.2298 14.6001 21.2298 14.4501 21.2198L14.3101 23.9898C14.5101 23.9898 14.7001 23.9998 14.9001 23.9998C18.1901 23.9998 21.1701 22.6598 23.3201 20.4898L21.3701 18.5298C19.7101 20.1998 17.4201 21.2398 14.9001 21.2398" fill="white"/>
</mask>
<g mask="url(#mask2_366_32921)">
<path d="M22.8941 16.6013L13.1365 18.7896L14.7383 25.9321L24.4959 23.7439L22.8941 16.6013Z" fill="url(#paint2_linear_366_32921)"/>
</g>
<mask id="mask3_366_32921" style="mask-type:luminance" maskUnits="userSpaceOnUse" x="14" y="0" width="9" height="5">
<path d="M14.9099 2.77C16.8199 2.77 18.5999 3.37 20.0699 4.38L22.3899 2.66C20.3499 1 17.7399 0 14.9099 0V2.77Z" fill="white"/>
</mask>
<g mask="url(#mask3_366_32921)">
<path d="M15.5453 -2.09683L13.6768 4.00342L21.7467 6.47526L23.6152 0.375014L15.5453 -2.09683Z" fill="url(#paint3_linear_366_32921)"/>
</g>
<path d="M26.8201 12.0001C26.8201 11.2701 26.7501 10.5501 26.6301 9.8501L24.0701 11.7501V12.0001C24.0701 14.7101 22.9101 17.1501 21.0601 18.8401L22.9101 20.9001C25.3201 18.7001 26.8301 15.5301 26.8301 12.0001" fill="#21A038"/>
<mask id="mask4_366_32921" style="mask-type:luminance" maskUnits="userSpaceOnUse" x="6" y="18" width="9" height="6">
<path d="M6.07007 20.0499C8.25007 22.4699 11.4001 23.9999 14.9001 23.9999V21.2299C12.2101 21.2299 9.79007 20.0499 8.11007 18.1899L6.07007 20.0499Z" fill="white"/>
</mask>
<g mask="url(#mask4_366_32921)">
<path d="M7.13449 15.3038L4.17163 23.292L13.8288 26.8739L16.7916 18.8856L7.13449 15.3038Z" fill="url(#paint4_linear_366_32921)"/>
</g>
<mask id="mask5_366_32921" style="mask-type:luminance" maskUnits="userSpaceOnUse" x="3" y="3" width="6" height="9">
<path d="M3 12.0001H5.75C5.75 9.2901 6.91 6.8501 8.77 5.1601L6.92 3.1001C4.51 5.2901 3 8.4701 3 12.0001Z" fill="white"/>
</mask>
<g mask="url(#mask5_366_32921)">
<path d="M3.74835 1.16085L-0.000244141 10.8403L8.01004 13.9425L11.7586 4.26301L3.74835 1.16085Z" fill="url(#paint5_linear_366_32921)"/>
</g>
</g>
<defs>
<linearGradient id="paint0_linear_366_32921" x1="9.95258" y1="19.1557" x2="6.90575" y2="10.4113" gradientUnits="userSpaceOnUse">
<stop stop-color="#F2E913"/>
<stop offset="0.14" stop-color="#F2E913"/>
<stop offset="0.3" stop-color="#E7E518"/>
<stop offset="0.58" stop-color="#CADB26"/>
<stop offset="0.89" stop-color="#A3CD39"/>
<stop offset="1" stop-color="#A3CD39"/>
</linearGradient>
<linearGradient id="paint1_linear_366_32921" x1="5.63791" y1="-0.68839" x2="13.3917" y2="-3.6214" gradientUnits="userSpaceOnUse">
<stop stop-color="#0FA8E0"/>
<stop offset="0.06" stop-color="#0FA8E0"/>
<stop offset="0.54" stop-color="#0099F9"/>
<stop offset="0.92" stop-color="#0291EB"/>
<stop offset="1" stop-color="#0291EB"/>
</linearGradient>
<linearGradient id="paint2_linear_366_32921" x1="13.9502" y1="21.1384" x2="22.7125" y2="19.1734" gradientUnits="userSpaceOnUse">
<stop stop-color="#A3CD39"/>
<stop offset="0.12" stop-color="#A3CD39"/>
<stop offset="0.28" stop-color="#86C339"/>
<stop offset="0.87" stop-color="#21A038"/>
<stop offset="1" stop-color="#21A038"/>
</linearGradient>
<linearGradient id="paint3_linear_366_32921" x1="14.5086" y1="0.536616" x2="22.0048" y2="2.83274" gradientUnits="userSpaceOnUse">
<stop stop-color="#0291EB"/>
<stop offset="0.06" stop-color="#0291EB"/>
<stop offset="0.79" stop-color="#0C8ACB"/>
<stop offset="1" stop-color="#0C8ACB"/>
</linearGradient>
<linearGradient id="paint4_linear_366_32921" x1="5.93841" y1="21.8355" x2="14.1048" y2="24.8644" gradientUnits="userSpaceOnUse">
<stop stop-color="#F2E913"/>
<stop offset="0.13" stop-color="#F2E913"/>
<stop offset="0.3" stop-color="#EBE716"/>
<stop offset="0.53" stop-color="#D9E01F"/>
<stop offset="0.8" stop-color="#BBD62D"/>
<stop offset="0.98" stop-color="#A3CD39"/>
<stop offset="1" stop-color="#A3CD39"/>
</linearGradient>
<linearGradient id="paint5_linear_366_32921" x1="7.99139" y1="13.9353" x2="11.3066" y2="5.3748" gradientUnits="userSpaceOnUse">
<stop stop-color="#A3CD39"/>
<stop offset="0.07" stop-color="#A3CD39"/>
<stop offset="0.26" stop-color="#81C55F"/>
<stop offset="0.92" stop-color="#0FA8E0"/>
<stop offset="1" stop-color="#0FA8E0"/>
</linearGradient>
<clipPath id="clip0_366_32921">
<rect width="89.68" height="26.88" fill="white"/>
</clipPath>
</defs>
</svg>
