<?xml version="1.0" encoding="UTF-8" standalone="no"?>
<!DOCTYPE svg PUBLIC "-//W3C//DTD SVG 1.1//EN" "http://www.w3.org/Graphics/SVG/1.1/DTD/svg11.dtd">
<svg xmlns="http://www.w3.org/2000/svg" version="1.1" viewBox="0.00 0.00 1582.00 294.00">
<g stroke-width="2.00" fill="none" stroke-linecap="butt">
<path stroke="#8cb696" vector-effect="non-scaling-stroke" d="
  M 446.00 253.99
  L 441.72 289.75"
/>
<path stroke="#e28c92" vector-effect="non-scaling-stroke" d="
  M 884.04 253.99
  L 879.81 289.23
  Q 879.76 289.71 879.28 289.75
  L 878.75 289.78"
/>
</g>
<path fill="#002d73" d="
  M 547.40 101.93
  C 555.19 63.29 574.68 33.10 615.74 24.93
  C 643.49 19.41 674.49 21.27 698.83 36.90
  A 0.77 0.76 35.0 0 1 699.03 38.01
  L 666.73 80.03
  Q 666.40 80.46 665.93 80.20
  Q 648.65 70.62 627.74 73.29
  C 606.19 76.04 601.42 95.29 598.04 113.43
  C 595.23 128.46 589.70 164.44 605.78 174.13
  Q 611.18 177.38 621.26 177.75
  Q 640.33 178.46 656.92 168.10
  A 0.56 0.56 0.0 0 1 657.71 168.31
  L 678.00 207.73
  A 0.52 0.52 0.0 0 1 677.80 208.42
  C 651.28 223.90 617.70 228.09 587.99 221.29
  C 532.23 208.52 539.15 142.90 547.40 101.93
  Z"
/>
<path fill="#002d73" d="
  M 690.99 85.76
  C 701.01 51.76 725.09 29.24 760.77 24.00
  C 794.29 19.08 837.75 22.48 852.23 58.55
  C 861.56 81.78 858.51 111.29 854.19 136.74
  C 846.45 182.29 825.34 217.78 775.25 223.67
  C 747.76 226.89 710.44 224.07 693.19 198.72
  C 685.30 187.13 681.90 170.71 681.55 156.56
  Q 680.69 120.71 690.99 85.76
  Z
  M 763.05 74.63
  C 749.82 78.39 742.87 91.66 740.23 104.25
  Q 735.85 125.03 735.11 146.26
  C 734.61 160.61 737.64 174.81 754.23 177.76
  C 777.15 181.83 793.77 172.22 799.26 149.50
  Q 803.88 130.34 805.06 108.26
  Q 805.51 99.70 804.13 92.10
  C 800.45 71.80 779.13 70.07 763.05 74.63
  Z"
/>
<path fill="#002d73" d="
  M 175.18 105.01
  C 197.87 104.20 214.13 118.10 213.59 141.90
  A 0.62 0.62 0.0 0 1 212.97 142.50
  L 21.18 142.50
  Q 20.59 142.50 20.66 141.92
  L 25.33 105.54
  Q 25.40 105.01 25.93 105.01
  Q 66.08 104.98 106.16 105.01
  Q 116.45 105.01 119.68 103.79
  C 128.34 100.49 130.44 90.49 130.79 82.03
  C 131.14 73.85 127.96 68.31 119.24 68.29
  Q 75.04 68.21 30.92 68.26
  A 0.65 0.65 0.0 0 1 30.27 67.53
  L 35.31 25.26
  A 0.78 0.77 3.0 0 1 36.07 24.58
  Q 82.52 24.28 129.25 24.68
  C 153.66 24.88 183.19 33.12 184.87 62.92
  Q 186.12 84.99 174.98 104.69
  A 0.22 0.21 13.8 0 0 175.18 105.01
  Z"
/>
<path fill="#002d73" d="
  M 288.66 194.41
  A 0.76 0.76 0.0 0 0 287.91 193.77
  L 231.26 193.74
  A 1.27 1.26 -78.9 0 0 230.09 194.53
  L 219.32 221.08
  Q 219.04 221.76 218.30 221.76
  L 167.99 221.75
  Q 167.43 221.75 167.65 221.23
  L 197.57 152.79
  Q 197.80 152.28 198.36 152.27
  C 207.62 152.17 222.37 155.50 223.22 141.23
  Q 224.14 125.71 215.28 113.10
  Q 214.98 112.67 215.19 112.19
  L 253.18 25.16
  A 0.99 0.98 11.0 0 1 254.07 24.57
  C 275.54 24.15 300.43 20.82 311.92 44.23
  Q 314.25 49.00 316.18 59.27
  Q 331.38 140.22 346.48 221.18
  Q 346.58 221.74 346.01 221.74
  L 294.02 221.77
  Q 293.00 221.77 292.84 220.76
  L 288.66 194.41
  Z
  M 248.13 149.20
  A 0.40 0.40 0.0 0 0 248.49 149.76
  L 281.85 149.74
  A 0.40 0.40 0.0 0 0 282.25 149.27
  L 272.51 93.51
  A 0.40 0.40 0.0 0 0 271.75 93.42
  L 248.13 149.20
  Z"
/>
<path fill="#002d73" d="
  M 970.39 131.48
  A 0.39 0.39 0.0 0 0 971.13 131.56
  L 1015.80 25.81
  Q 1016.35 24.51 1017.75 24.51
  L 1082.19 24.49
  Q 1083.14 24.49 1083.02 25.44
  L 1058.79 221.26
  Q 1058.74 221.74 1058.25 221.74
  L 1008.72 221.77
  Q 1007.92 221.77 1008.02 220.98
  L 1021.72 109.97
  A 0.38 0.38 0.0 0 0 1021.00 109.77
  L 973.78 221.24
  Q 973.56 221.74 973.02 221.74
  L 941.02 221.78
  Q 940.71 221.78 940.65 221.47
  L 920.24 108.78
  A 0.22 0.22 0.0 0 0 919.80 108.79
  L 905.97 221.42
  A 0.39 0.38 3.3 0 1 905.58 221.76
  L 860.43 221.76
  Q 859.91 221.76 859.97 221.24
  L 884.23 25.24
  A 0.79 0.79 0.0 0 1 885.00 24.54
  Q 901.87 24.39 918.86 24.58
  C 934.11 24.76 946.64 30.44 953.44 44.51
  Q 955.90 49.60 958.06 61.52
  Q 964.42 96.56 970.39 131.48
  Z"
/>
<path fill="#002d73" d="
  M 1189.97 194.31
  A 0.67 0.67 0.0 0 0 1189.31 193.75
  L 1132.26 193.75
  A 0.82 0.81 -78.6 0 0 1131.51 194.25
  L 1120.54 221.35
  Q 1120.38 221.74 1119.96 221.74
  L 1069.50 221.77
  Q 1068.75 221.77 1069.05 221.09
  L 1154.48 25.19
  Q 1154.76 24.55 1155.46 24.54
  C 1176.80 24.24 1200.97 21.00 1212.39 44.18
  Q 1214.77 49.01 1216.80 59.70
  Q 1232.16 140.62 1247.48 221.47
  Q 1247.54 221.76 1247.24 221.76
  L 1194.79 221.74
  Q 1194.33 221.74 1194.26 221.29
  L 1189.97 194.31
  Z
  M 1173.40 93.36
  A 0.35 0.35 0.0 0 0 1172.74 93.28
  L 1149.03 149.28
  A 0.35 0.35 0.0 0 0 1149.35 149.77
  L 1182.85 149.74
  A 0.35 0.35 0.0 0 0 1183.20 149.33
  L 1173.40 93.36
  Z"
/>
<path fill="#002d73" d="
  M 1241.24 71.62
  L 1247.11 25.00
  A 0.56 0.56 0.0 0 1 1247.66 24.51
  L 1409.75 24.50
  A 0.56 0.56 0.0 0 1 1410.30 25.13
  L 1404.44 71.76
  A 0.56 0.56 0.0 0 1 1403.89 72.25
  L 1346.06 72.25
  A 0.56 0.56 0.0 0 0 1345.50 72.74
  L 1327.22 221.76
  A 0.56 0.56 0.0 0 1 1326.66 222.25
  L 1275.39 222.25
  A 0.56 0.56 0.0 0 1 1274.84 221.62
  L 1293.08 72.88
  A 0.56 0.56 0.0 0 0 1292.53 72.25
  L 1241.79 72.25
  A 0.56 0.56 0.0 0 1 1241.24 71.62
  Z"
/>
<path fill="#002d73" d="
  M 1475.26 48.22
  A 23.64 23.64 0.0 0 1 1451.62 71.86
  A 23.64 23.64 0.0 0 1 1427.98 48.22
  A 23.64 23.64 0.0 0 1 1451.62 24.58
  A 23.64 23.64 0.0 0 1 1475.26 48.22
  Z
  M 1471.95 48.21
  A 20.37 20.37 0.0 0 0 1451.58 27.84
  A 20.37 20.37 0.0 0 0 1431.21 48.21
  A 20.37 20.37 0.0 0 0 1451.58 68.58
  A 20.37 20.37 0.0 0 0 1471.95 48.21
  Z"
/>
<path fill="#002d73" d="
  M 418.68 118.22
  A 0.38 0.37 -54.3 0 0 417.97 118.34
  L 405.11 221.70
  A 0.64 0.63 3.6 0 1 404.48 222.25
  L 356.41 222.25
  Q 355.83 222.25 355.90 221.68
  L 380.17 25.56
  Q 380.23 25.00 380.79 25.00
  Q 394.40 25.00 407.91 24.98
  C 425.97 24.95 438.47 31.29 446.16 48.59
  Q 453.57 65.23 478.79 117.49
  A 0.28 0.27 -54.7 0 0 479.31 117.40
  L 490.58 25.55
  Q 490.65 25.00 491.21 25.00
  L 539.44 25.00
  Q 540.20 25.00 540.11 25.76
  L 515.94 221.08
  A 0.78 0.77 -86.7 0 1 515.17 221.77
  L 468.23 221.74
  Q 467.79 221.74 467.60 221.34
  L 418.68 118.22
  Z"
/>
<path fill="#002d73" d="
  M 1457.52 49.47
  C 1462.57 50.73 1462.66 56.06 1462.39 60.59
  Q 1462.37 61.00 1461.96 61.00
  L 1458.79 61.00
  A 0.57 0.57 0.0 0 1 1458.22 60.35
  C 1459.57 50.81 1454.70 50.29 1446.97 50.53
  Q 1446.50 50.55 1446.50 51.02
  L 1446.50 60.38
  Q 1446.50 61.00 1445.87 61.00
  L 1442.75 61.00
  Q 1442.00 61.00 1442.00 60.25
  L 1442.00 35.53
  Q 1442.00 35.09 1442.44 35.07
  C 1447.11 34.77 1460.57 34.28 1462.02 40.20
  Q 1463.63 46.80 1457.50 48.86
  A 0.32 0.32 0.0 0 0 1457.52 49.47
  Z
  M 1446.48 38.82
  L 1446.44 47.88
  A 0.29 0.29 0.0 0 0 1446.72 48.17
  L 1452.74 48.20
  A 4.75 4.10 0.3 0 0 1457.52 44.13
  L 1457.52 42.69
  A 4.75 4.10 0.3 0 0 1452.80 38.56
  L 1446.78 38.53
  A 0.29 0.29 0.0 0 0 1446.48 38.82
  Z"
/>
<path fill="#002d73" d="
  M 1397.69 152.94
  C 1408.68 138.77 1434.84 141.41 1449.31 147.40
  A 0.69 0.68 -62.5 0 1 1449.62 148.40
  L 1439.05 164.99
  Q 1438.80 165.39 1438.37 165.20
  C 1432.82 162.73 1415.16 158.59 1412.57 165.80
  C 1411.60 168.52 1413.36 170.46 1415.93 171.36
  C 1431.99 176.98 1449.93 176.93 1446.21 199.76
  Q 1443.21 218.13 1425.64 221.38
  C 1412.16 223.88 1394.73 223.67 1382.86 215.75
  Q 1382.38 215.43 1382.73 214.98
  L 1394.40 199.90
  A 0.48 0.47 33.5 0 1 1395.01 199.78
  Q 1407.63 207.11 1421.50 204.73
  C 1423.33 204.42 1424.73 202.82 1425.31 201.01
  Q 1427.18 195.18 1420.69 193.56
  C 1412.63 191.55 1401.66 189.12 1396.43 183.72
  C 1388.69 175.74 1391.50 160.91 1397.69 152.94
  Z"
/>
<path fill="#002d73" d="
  M 1534.19 213.15
  L 1531.00 221.30
  Q 1530.81 221.79 1530.27 221.79
  L 1510.29 221.73
  Q 1509.64 221.73 1509.89 221.14
  L 1542.56 143.56
  A 0.92 0.91 -78.2 0 1 1543.40 143.00
  C 1554.62 143.01 1564.93 141.96 1567.76 155.50
  Q 1574.65 188.48 1581.49 221.27
  A 0.41 0.41 0.0 0 1 1581.09 221.76
  L 1560.76 221.78
  A 0.94 0.94 0.0 0 1 1559.83 220.99
  L 1558.55 213.34
  Q 1558.46 212.75 1557.85 212.75
  L 1534.78 212.75
  Q 1534.35 212.75 1534.19 213.15
  Z
  M 1551.39 172.02
  A 0.31 0.31 0.0 0 0 1550.80 171.96
  L 1541.72 194.32
  A 0.31 0.31 0.0 0 0 1542.01 194.75
  L 1555.24 194.75
  A 0.31 0.31 0.0 0 0 1555.54 194.38
  L 1551.39 172.02
  Z"
/>
<path fill="#002d73" d="
  M 10.69 221.76
  L 15.72 181.06
  Q 15.79 180.52 16.34 180.51
  Q 60.21 180.47 103.97 180.49
  C 120.45 180.49 125.97 168.75 124.58 153.70
  A 0.64 0.64 0.0 0 1 125.22 153.00
  L 177.74 153.00
  A 0.42 0.42 0.0 0 1 178.16 153.41
  C 179.05 202.84 146.06 222.46 100.94 222.64
  Q 56.24 222.81 11.55 222.74
  A 0.87 0.87 0.0 0 1 10.69 221.76
  Z"
/>
<path fill="#002d73" d="
  M 1470.55 219.32
  C 1469.17 236.13 1466.64 243.20 1448.15 241.55
  Q 1447.64 241.50 1447.70 240.99
  L 1457.93 160.75
  Q 1457.99 160.27 1458.48 160.26
  C 1463.82 160.21 1472.35 158.42 1474.58 164.80
  Q 1474.77 165.33 1475.21 164.98
  C 1480.98 160.55 1487.52 160.28 1494.50 160.33
  C 1508.26 160.43 1511.12 169.49 1511.05 181.68
  C 1510.97 195.43 1508.42 216.91 1492.85 221.55
  C 1487.47 223.15 1475.72 223.60 1471.35 219.04
  A 0.47 0.46 -64.2 0 0 1470.55 219.32
  Z
  M 1486.44 179.27
  C 1474.26 176.37 1473.78 193.69 1474.06 200.42
  C 1474.31 206.21 1481.42 206.90 1485.17 204.67
  C 1489.81 201.89 1490.16 191.79 1490.38 186.48
  C 1490.52 183.05 1490.34 180.19 1486.44 179.27
  Z"
/>
<path fill="#196d2d" d="
  M 446.00 253.99
  L 441.72 289.75
  L 3.17 289.75
  A 0.51 0.50 -86.5 0 1 2.67 289.18
  L 6.91 253.95
  Q 6.97 253.43 7.49 253.43
  L 446.00 253.99
  Z"
/>
<path fill="#ffffff" d="
  M 884.04 253.99
  L 879.81 289.23
  Q 879.76 289.71 879.28 289.75
  L 878.75 289.78
  L 441.72 289.75
  L 446.00 253.99
  L 884.04 253.99
  Z"
/>
<path fill="#c41824" d="
  M 878.75 289.78
  L 879.28 289.75
  Q 879.76 289.71 879.81 289.23
  L 884.04 253.99
  Q 884.62 254.13 884.81 253.75
  Q 1103.67 253.75 1322.38 253.75
  A 0.69 0.68 3.7 0 1 1323.06 254.52
  L 1318.84 289.58
  A 0.80 0.79 -86.8 0 1 1318.05 290.29
  L 878.75 289.78
  Z"
/>
</svg>
